PathFileType	4	(X/Y/Z)	0_coords_data.trc
DataRate	CameraRate	NumFrames	NumMarkers	Units	OrigDataRate	OrigDataStartFrame	OrigNumFrames
30.0	30.0	5	21	m	30.0	1	62
Frame#	Time	THUMB_TIP	THUMB_IP	THUMB_MCP	THUMB_CMC	INDEX_TIP	INDEX_DIP	INDEX_PIP	INDEX_MCP	MIDDLE_TIP	MIDDLE_DIP	MIDDLE_PIP	MIDDLE_MCP	RING_TIP	RING_DIP	RING_PIP	RING_MCP	PINKY_TIP	PINKY_DIP	PINKY_PIP	PINKY_MCP	WRIST
X1	Y1	Z1	X2	Y2	Z2	X3	Y3	Z3	X4	Y4	Z4	X5	Y5	Z5	X6	Y6	Z6	X7	Y7	Z7	X8	Y8	Z8	X9	Y9	Z9	X10	Y10	Z10	X11	Y11	Z11	X12	Y12	Z12	X13	Y13	Z13	X14	Y14	Z14	X15	Y15	Z15	X16	Y16	Z16	X17	Y17	Z17	X18	Y18	Z18	X19	Y19	Z19	X20	Y20	Z20	X21	Y21	Z21
0	-2.749317978547796e-18	0.5003722641469299	-0.010123895788645476	-0.16517909116099366	0.499576207885578	-0.013041712078241896	-0.14240075402833785	0.48317750354835387	-0.025605326454274824	-0.11911861302132037	0.47928739304208157	-0.026974553582818195	-0.0747014737919704	0.501580367405251	-0.019485319923988942	-0.09950980190945652	0.5181456738994231	-0.015667506765774775	-0.10575599462527197	0.529905216201196	0.0014993308431947572	-0.11986353460785171	0.49107059798070296	0.018975815561561915	-0.11957892336908021	0.501988961333014	-0.018421401301542795	-0.08691777555467695	0.5191422447834401	-0.012963949790871121	-0.08891304242354503	0.5369353731792965	0.0073221501842329895	-0.09992613825027102	0.4993287723712394	0.03144425886733693	-0.10005011140847636	0.5012497893788079	-0.007014115679575883	-0.07407184728263888	0.5192227519756667	-0.006153549806011016	-0.07296187346800403	0.5398027776385019	0.006693292466762091	-0.078583364936959	0.5107106653119097	0.034768408239460036	-0.07898049051729034	0.5026897221312857	-0.008899295165463617	-0.056766208717950184	0.5197812152653767	-0.009271335945894132	-0.05762786300188105	0.5363386197424416	0.003590686012118316	-0.058738163472239924	0.5128275489092659	0.030745501338484083	-0.05546264765509601	0.462283081001861	-0.023011742144276925	-0.051989820119430985
1	0.03333333333333339	0.5003505781414481	-0.010267234890577792	-0.1652089755575566	0.4996449960073652	-0.013065970749880584	-0.14241272078968048	0.4832294870104086	-0.025536314477248134	-0.11909230930763032	0.4793229416375411	-0.026955278355213497	-0.074678173666342	0.5016188744194333	-0.019481030664194376	-0.09950579577468621	0.518190985199015	-0.015617945474128425	-0.10570593425084684	0.5299608021821588	0.001543536155239611	-0.11981142217109131	0.4911252305327881	0.019017944554526878	-0.11952942968623276	0.5020575242992146	-0.018343983108093043	-0.08693776533308795	0.5192203787663954	-0.012905403631707446	-0.08890201577979973	0.5370112736497874	0.007386274368642032	-0.09990844177456476	0.49937445906589395	0.031461376436943245	-0.09999544394984594	0.5012965890202976	-0.007087046917514939	-0.07417547130964186	0.5192552407715525	-0.006132607712679983	-0.07292013347406873	0.5398220472557267	0.006734266345377438	-0.0785441891296092	0.510714244068128	0.03479340080501614	-0.07892048817019481	0.5025840069079996	-0.008876903572740735	-0.056757760135991264	0.5196779799648881	-0.009152875910263147	-0.05760624372410306	0.5362967230078879	0.003632865697613341	-0.058680585479486735	0.5127847482908159	0.030788533738331236	-0.05541865519726097	0.4622830810018609	-0.023011742144276925	-0.051989820119430985
2	0.06666666666666676	0.5003488014357372	-0.010407019169715759	-0.16522916071568947	0.49971630646750453	-0.013099152674346137	-0.14241792735779296	0.48327590083116756	-0.02548722142703297	-0.11907121848713204	0.4793504814425972	-0.0269413418064689	-0.07465988416191782	0.5016524566905739	-0.019473239164321532	-0.09950400831960121	0.5182305955781361	-0.015577365236486784	-0.10566740651889966	0.5300059283662673	0.001580916712785374	-0.11977218341462009	0.4911690327433227	0.01905236746377259	-0.11948926818289252	0.50211579183553	-0.01827785581633401	-0.08695526269613374	0.5192869433504412	-0.012855670641403028	-0.08889213222729075	0.5370780145485496	0.007438139120453102	-0.0998943420495686	0.49941677622847314	0.031475116146039706	-0.09994711202033024	0.5013411720824599	-0.007137564485286019	-0.07425300298201726	0.51928811234794	-0.0061202106470901185	-0.07288467324281139	0.5398427114092399	0.00676645216831584	-0.0785080492671632	0.5107219119648575	0.03481233876087464	-0.07886598635296843	0.5025106811490785	-0.008860413044983861	-0.05674467925702442	0.5196060798547821	-0.009062434338031111	-0.05758523293774942	0.5362698711777397	0.003667059615953705	-0.058629293003258864	0.5127537702024685	0.030820259645219616	-0.0553765750487592	0.462283081001861	-0.023011742144276925	-0.051989820119430985
3	0.10000000000000014	0.5003627220607011	-0.0105402579079511	-0.16524123891509973	0.49978755704780475	-0.01313816943286461	-0.1424175660968029	0.48331627976306657	-0.02545516877041154	-0.11905502017543268	0.47937074677300595	-0.026932066471926364	-0.0746462198921149	0.5016811491548956	-0.019462017942587284	-0.09950511449467714	0.5182646482352646	-0.01554388150731767	-0.10563991401267431	0.5300411729423615	0.0016131588513992323	-0.1197452061029678	0.4912023200443668	0.019080182678681168	-0.11945766795750018	0.5021640709000872	-0.018221242563892348	-0.08697111342614355	0.5193424541723359	-0.012813473186916724	-0.08888401136308749	0.5371353300019077	0.007479873382664648	-0.09988415703122805	0.4994545960678147	0.031486326148208565	-0.09990505688279439	0.5013818282953034	-0.007165906710747794	-0.07430515395878029	0.5193204479742938	-0.006114600533496328	-0.07285578191054204	0.5398636942904953	0.006791604398138196	-0.07847582497572708	0.5107320940066837	0.034826478882996614	-0.07881716281785661	0.5024654454076586	-0.008848924170901551	-0.0567291986805904	0.5195615833182111	-0.008996620167333713	-0.05756601074790785	0.536256092580392	0.003694604819655889	-0.05858492577114144	0.5127329271034864	0.03084226484846264	-0.05533705078794826	0.4622830810018608	-0.023011742144276925	-0.051989820119430985
4	0.13333333333333353	0.5003880938476026	-0.010664006489597422	-0.16524671850478417	0.4998561205006671	-0.013179985510704095	-0.14241282146718887	0.48335014305907786	-0.025437293685751317	-0.11904337335646814	0.4793844560597966	-0.02692677753301831	-0.07463678865901063	0.5017050220539233	-0.019447238495194807	-0.09950965653117921	0.5182932661354995	-0.015515614616722795	-0.10562296103596902	0.5300671006525121	0.0016419380869356903	-0.11972987561666981	0.49122539584194314	0.019102477414887575	-0.11943385570909637	0.5022026512324578	-0.018172347392655497	-0.08698616377172647	0.5193874061401554	-0.01277752176497926	-0.08887826715403152	0.5371829384791907	0.007513607994426352	-0.09987820496555194	0.4994867875050636	0.03149585230283769	-0.09986922345753069	0.5014173929299031	-0.007173661437223755	-0.07433419139355263	0.5193513246358165	-0.0061140264362588015	-0.07283376904222422	0.5398839196789545	0.006811466842339797	-0.07844840556647092	0.5107432188071114	0.03483706657438246	-0.07877420666697205	0.5024442314967053	-0.008841525825507679	-0.05671359271188808	0.5195406808022478	-0.008952000851049413	-0.05754978432374658	0.5362534340195679	0.0037168258891752126	-0.05854814694480509	0.5127205414299824	0.030856109499501905	-0.05530073220607995	0.4622830810018609	-0.023011742144276925	-0.051989820119430985
